<?xml version="1.0" encoding="UTF-8" standalone="no"?>
<svg
   height="16"
   width="16"
   version="1.1"
   id="svg1"
   xmlns="http://www.w3.org/2000/svg"
   xmlns:svg="http://www.w3.org/2000/svg">
  <defs
     id="defs1" />
  <path
     id="path1"
     style="font-variation-settings:normal;opacity:0.5;vector-effect:none;fill:#555761;fill-opacity:1;stroke:none;stroke-width:4;stroke-linecap:round;stroke-linejoin:round;stroke-miterlimit:4;stroke-dasharray:none;stroke-dashoffset:0;stroke-opacity:1;-inkscape-stroke:none;stop-color:#000000"
     d="M 12.212891 1 A 0.83 0.83 0 0 0 11.623047 1.2460938 L 10.716797 2.1582031 L 13.841797 5.2832031 L 14.751953 4.3769531 C 15.081953 4.0469535 15.081953 3.5272653 14.751953 3.1972656 L 12.802734 1.2460938 A 0.83 0.83 0 0 0 12.212891 1 z M 9.6582031 3.2207031 L 6.0878906 6.7910156 L 9.2089844 9.9121094 L 12.777344 6.34375 L 9.6582031 3.2207031 z M 5.2050781 7.6738281 L 0.9921875 11.888672 L 0.9921875 15.007812 L 4.1132812 15.007812 L 8.3261719 10.794922 L 5.2050781 7.6738281 z M 2 12 L 3 12 L 3 13 L 4 13 L 4 14 L 2 14 L 2 12 z " />
  <rect
     style="font-variation-settings:normal;vector-effect:none;fill:#555761;fill-opacity:1;stroke:none;stroke-width:0.992001;stroke-linecap:square;stroke-linejoin:miter;stroke-miterlimit:4;stroke-dasharray:none;stroke-dashoffset:0;stroke-opacity:1;-inkscape-stroke:none;marker:none;stop-color:#000000"
     id="rect2480-1-6"
     width="1.248"
     height="19.799999"
     x="-0.6257652"
     y="1.416185"
     rx="0.5"
     ry="0.5"
     transform="rotate(-45)" />
</svg>
